<svg xmlns="http://www.w3.org/2000/svg" viewBox="0 0 773.45 1347.45" preserveAspectRatio="xMinYMid">
  <path fill="#fff" d="M349.03,774.84c-12.17,6.44-21.54,11.18-30.71,16.29-37.52,20.9-69.6,48.26-95.16,82.77-8.26,11.16-13.94,12.05-26.53,4.36-163.69-100.1-174.21-351.32,4.55-460.68C340.22,332.51,517.86,384.5,584.42,512.42c12.61,24.24,14.22,61.57,6.23,87C563.06,687.23,497.94,736.47,408.55,757.39c26.35-22.56,47.33-48.15,54.01-83.49,6.73-35.61-.39-67.81-21.04-97.07-31.37-44.45-92.03-62.74-142.72-43.49-55.03,20.9-85.18,71.12-79.75,132.86C224.09,723.55,267.61,760.72,349.03,774.84Z"/>
  <path fill="#fff" d="M0,1061.47c13.15-88.71,117.03-170.41,204.88-161.09-27.21,36.8-39.78,78.42-42.81,119.94-29.19,5.38-56.7,8.99-83.41,15.77C52.36,1042.77,26.88,1052.65,0,1061.47Z"/>
  <path fill="#fff" d="M651.83,834.47c-7.4-6.4-12.09-6.4-20.78-.84q-44.18,28.27-90.24,53.56c-17.56,9.66-36.58,16.68-58.61,26.52,7.56,1.95,11.2,2.87,14.83,3.83,82.34,21.91,126.33,94.2,106.84,175.16-17.33,72-90.42,118.03-161.25,105.89-59.05-10.12-110.6-59.16-119.21-117.92-9.38-64.03,22.51-125.62,79.25-151.42,31.47-14.31,63.79-26.77,95.19-41.23,35.7-16.44,74.29-29.43,105.46-52.32,77.35-56.8,125.12-135.01,143.75-229.4,11.16-56.54,10.4-112.84-15.47-166.52-19.85-41.2-52.43-71.13-87.43-98.45-36.02-28.11-74.15-53.52-110-81.82-9.7-7.66-16.25-20.87-20.74-32.84-1.9-5.08,4.29-18.84,8.43-19.58,20.98-4.47,43.22-6.23,66.82-6.82,25.82-.97,51.71-.15,77.57.19,5.61.07,13.22-.65,16.44,2.51,13.39,13.17,23.9,4.7,33.19-3.97,7.82-7.29,13.4-16.99,19.62-25.17-3.78-.56-11.52-2.51-19.3-2.69-26-.62-52.04-.22-78.02-1.18-4.63-.17-9.09-4.94-13.63-7.58,4.78-1.9,9.54-5.4,14.33-5.44,44.85-.42,89.7-.25,134.59-.25,.05-23.34-31.14-55.29-58.85-63.95-.21,3.16-.4,6.1-.61,9.23-27.53.65-54.56.14-79.11-12.91-6.47-3.44-10.7-11.09-15.96-16.8-6.63-7.19-12.07-16.43-20.15-21.12-16.57-9.61-34.65-16.58-51.93-25C485.43-3.78,420.57-2.73,350.9,3.65c41.64,9.69,79.25,18.45,116.87,27.2q-.64,3.43-1.28,6.86C416.18,44.46,368.59,26.01,319.38,19.17c18.14,9.72,36.7,19.34,54.56,28.53,19,8.51,38.52,15.71,58.08,23.58C407.18,92.51,382.25,97.16,351.01,90.03c-17.07-3.9-35.13-5.97-52.56-5.12-18.01.88-36.14,5.31-52.49,16.24,17.51,8.88,33.64,16.24,48.86,25.17,6.28,3.68,13.47,9.93,15.22,16.38,4.19,15.44,5.4,31.69,7.82,47.62-28.67,3.25-79.07,32.4-89.26,51.37,44.06,8.48,92.03-1.78,134.06,26.62-13.84,10.48-46.09,23.51-57.91,32.46,14.62,3.83,48.5,1.95,61.75,1.06,11.16-.76,16.31-1.03,20.88,2.73l80.42,66.34c13.64,10.99,68.72,63.13,83.1,95.9,12.24,27.9,13.74,51.64,13.74,57.43,0,22.12-4.08,45.02-12.6,67.02-4.49,11.4-17.66,36.65-44.83,66.08-42.11,45.62-96.27,70.27-155.5,82.49-137.72,28.4-252.15,175.47-219.85,337.61,37.71,189.3,246.65,291.78,417.39,201.74,110.36-58.2,168.87-171.75,153.19-295.36C742.24,944.34,708.46,883.43,651.83,834.47ZM580.28,103.54c4.92-3.76,9.98-6.92,16.08-1.89,3.47,2.86,6.85,5.82,11.05,9.41-5.22,2.76-9.46,5.08-13.78,7.26-6.05,3.05-10.57,1.01-14.23-3.81C576.43,110.6,575.9,106.89,580.28,103.54Z"/>
</svg>
